<svg width="12" height="23" viewBox="0 0 12 23" fill="none" xmlns="http://www.w3.org/2000/svg">
<path d="M11.5628 0.254577L8.78558 0.25C5.66542 0.25 3.64903 2.37509 3.64903 5.66423V8.16055H0.85662C0.615322 8.16055 0.419922 8.3615 0.419922 8.60937V12.2263C0.419922 12.4741 0.615545 12.6749 0.85662 12.6749H3.64903V21.8014C3.64903 22.0493 3.84443 22.25 4.08573 22.25H7.72904C7.97033 22.25 8.16573 22.049 8.16573 21.8014V12.6749H11.4307C11.672 12.6749 11.8674 12.4741 11.8674 12.2263L11.8688 8.60937C11.8688 8.49036 11.8226 8.37638 11.7409 8.29215C11.6591 8.20793 11.5477 8.16055 11.4318 8.16055H8.16573V6.04439C8.16573 5.02727 8.40168 4.51094 9.6915 4.51094L11.5624 4.51025C11.8035 4.51025 11.9989 4.3093 11.9989 4.06166V0.703169C11.9989 0.455757 11.8037 0.255035 11.5628 0.254577Z" fill="#3C2434"/>
</svg>
