<svg width="22" height="22" viewBox="0 0 22 22" fill="none" xmlns="http://www.w3.org/2000/svg">
<path d="M11.2111 9.75283H21.0865C21.1955 10.3612 21.25 10.9424 21.25 11.4963C21.25 13.4669 20.8368 15.2263 20.0105 16.7746C19.1841 18.3229 18.0059 19.5329 16.4757 20.4047C14.9456 21.2764 13.1908 21.7123 11.2111 21.7123C9.78544 21.7123 8.42785 21.4376 7.13837 20.8882C5.84889 20.3388 4.73649 19.5965 3.80116 18.6611C2.86584 17.7258 2.12348 16.6134 1.57409 15.3239C1.0247 14.0344 0.75 12.6769 0.75 11.2512C0.75 9.82547 1.0247 8.46789 1.57409 7.17841C2.12348 5.88893 2.86584 4.77653 3.80116 3.8412C4.73649 2.90587 5.84889 2.16352 7.13837 1.61413C8.42785 1.06473 9.78544 0.790039 11.2111 0.790039C13.9354 0.790039 16.2737 1.70266 18.2261 3.52791L15.3792 6.26579C14.2623 5.18517 12.8729 4.64486 11.2111 4.64486C10.0397 4.64486 8.95681 4.93998 7.96246 5.53024C6.96811 6.12049 6.18034 6.92188 5.59917 7.93439C5.018 8.9469 4.72741 10.0525 4.72741 11.2512C4.72741 12.4498 5.018 13.5554 5.59917 14.5679C6.18034 15.5805 6.96811 16.3818 7.96246 16.9721C8.95681 17.5623 10.0397 17.8575 11.2111 17.8575C12.0012 17.8575 12.7276 17.7485 13.3905 17.5306C14.0534 17.3126 14.5983 17.0402 15.0251 16.7133C15.4519 16.3864 15.8242 16.0141 16.142 15.5963C16.4599 15.1786 16.6937 14.7836 16.8435 14.4113C16.9934 14.039 17.0955 13.6848 17.15 13.3488H11.2111V9.75283Z" fill="#3C2434"/>
</svg>
