<svg width="23" height="16" viewBox="0 0 23 16" fill="none" xmlns="http://www.w3.org/2000/svg">
<path d="M22.4727 1.2658C22.6333 0.67976 22.4727 0.25 21.7128 0.25H19.1957C18.5552 0.25 18.2625 0.621787 18.1019 1.03012C18.1019 1.03012 16.8221 4.45686 15.0086 6.67875C14.4232 7.32528 14.1557 7.52945 13.8367 7.52945C13.6771 7.52945 13.4453 7.32528 13.4453 6.73925V1.2658C13.4453 0.562553 13.2605 0.25 12.7267 0.25H8.77144C8.37201 0.25 8.13097 0.575156 8.13097 0.885188C8.13097 1.55062 9.03773 1.70438 9.1307 3.57969V7.64792C9.1307 8.53894 8.98493 8.70152 8.66355 8.70152C7.81074 8.70152 5.73552 5.26218 4.50394 1.32503C4.26405 0.560032 4.02187 0.251261 3.3791 0.251261H0.863141C0.143474 0.251261 0 0.623047 0 1.03138C0 1.76487 0.852811 5.39451 3.97251 10.195C6.05232 13.473 8.98034 15.25 11.6478 15.25C13.2467 15.25 13.4441 14.8555 13.4441 14.175V11.6972C13.4441 10.9083 13.5968 10.7495 14.1029 10.7495C14.4748 10.7495 15.1153 10.9562 16.6086 12.5353C18.3142 14.4081 18.5966 15.2487 19.555 15.2487H22.0709C22.7894 15.2487 23.1487 14.8543 22.9421 14.0754C22.716 13.3003 21.9011 12.1724 20.8198 10.8377C20.2322 10.0765 19.3541 9.25731 19.0867 8.84772C18.7136 8.31965 18.8215 8.0865 19.0867 7.61767C19.0878 7.61893 22.1536 2.87771 22.4727 1.2658Z" fill="#3C2434"/>
</svg>
